<svg xmlns="http://www.w3.org/2000/svg" version="1.1" xmlns:xlink="http://www.w3.org/1999/xlink" xmlns:svgjs="http://svgjs.com/svgjs" width="512" height="512" x="0" y="0" viewBox="0 0 100 100" style="enable-background:new 0 0 512 512" xml:space="preserve"><g><g fill="#0073b1"><path d="M89.98 90v-.003H90v-29.34c0-14.353-3.09-25.41-19.87-25.41-8.067 0-13.48 4.427-15.69 8.623h-.233v-7.283h-15.91v53.41h16.567V63.55c0-6.963 1.32-13.697 9.943-13.697 8.497 0 8.623 7.947 8.623 14.143V90zM11.32 36.59h16.587V90H11.32zM19.607 10C14.303 10 10 14.303 10 19.607s4.303 9.697 9.607 9.697 9.607-4.393 9.607-9.697C29.21 14.303 24.907 10 19.607 10z" fill="#0073b1" data-original="#0073b1"></path></g></g></svg>