<svg width="554" height="176" viewBox="0 0 554 176" fill="none" xmlns="http://www.w3.org/2000/svg">
<path d="M49 112C52.3333 114.167 59 119.8 59 125" stroke="#F0ABFC" stroke-width="2"/>
<line x1="59.5" y1="100" x2="59.5" y2="157" stroke="#F0ABFC" stroke-width="3"/>
<path d="M52 115V48.3608C24.544 16.7072 0 14 0 14V87.9278C17.16 107.191 52 115 52 115Z" fill="#F0ABFC"/>
<path d="M58 102V34.701C85.456 2.73402 110 0 110 0V74.6598C92.84 94.1134 58 102 58 102Z" fill="#F0ABFC"/>
<path d="M102.594 157H89.4121V109.188H112.92C115.133 109.188 117.27 109.453 119.328 109.984C121.387 110.493 123.202 111.312 124.773 112.441C126.367 113.548 127.629 114.987 128.559 116.758C129.51 118.529 129.986 120.676 129.986 123.199C129.986 125.169 129.566 127.029 128.725 128.777C127.906 130.504 126.799 132.053 125.404 133.426C124.032 134.776 122.449 135.905 120.656 136.812C118.863 137.698 117.004 138.285 115.078 138.572C115.941 140.033 116.838 141.417 117.768 142.723C118.719 144.029 119.671 145.257 120.623 146.408C121.597 147.537 122.56 148.589 123.512 149.562C124.464 150.514 125.371 151.389 126.234 152.186C128.271 154.045 130.285 155.65 132.277 157H115.842C114.514 155.738 113.252 154.222 112.057 152.451C111.038 150.946 110.009 149.087 108.969 146.873C107.951 144.637 107.165 142.059 106.611 139.137H102.594V157ZM116.605 123.199C116.605 119.99 115.82 117.632 114.248 116.127C112.699 114.622 110.363 113.869 107.242 113.869H102.594V134.621H107.242C108.902 134.621 110.319 134.311 111.492 133.691C112.688 133.049 113.661 132.208 114.414 131.168C115.167 130.105 115.72 128.888 116.074 127.516C116.428 126.143 116.605 124.704 116.605 123.199ZM187.926 133.027C187.926 136.879 187.262 140.354 185.934 143.453C184.605 146.53 182.768 149.142 180.422 151.289C178.076 153.436 175.298 155.085 172.088 156.236C168.878 157.387 165.403 157.963 161.662 157.963C157.921 157.963 154.446 157.387 151.236 156.236C148.027 155.085 145.249 153.436 142.902 151.289C140.556 149.142 138.719 146.53 137.391 143.453C136.062 140.354 135.398 136.879 135.398 133.027C135.398 129.109 136.051 125.612 137.357 122.535C138.686 119.436 140.512 116.824 142.836 114.699C145.182 112.552 147.96 110.914 151.17 109.785C154.38 108.634 157.877 108.059 161.662 108.059C165.447 108.059 168.945 108.634 172.154 109.785C175.364 110.914 178.131 112.552 180.455 114.699C182.801 116.824 184.628 119.436 185.934 122.535C187.262 125.612 187.926 129.109 187.926 133.027ZM174.512 133.027C174.512 131.566 174.445 130.072 174.312 128.545C174.18 127.018 173.936 125.535 173.582 124.096C173.228 122.657 172.741 121.307 172.121 120.045C171.523 118.783 170.749 117.688 169.797 116.758C168.845 115.806 167.694 115.064 166.344 114.533C165.016 113.98 163.455 113.703 161.662 113.703C159.847 113.703 158.264 113.98 156.914 114.533C155.564 115.064 154.413 115.795 153.461 116.725C152.509 117.654 151.734 118.75 151.137 120.012C150.539 121.273 150.063 122.624 149.709 124.062C149.377 125.479 149.145 126.962 149.012 128.512C148.879 130.039 148.812 131.544 148.812 133.027C148.812 134.488 148.879 135.982 149.012 137.51C149.145 139.037 149.388 140.52 149.742 141.959C150.096 143.376 150.572 144.715 151.17 145.977C151.79 147.238 152.576 148.345 153.527 149.297C154.479 150.227 155.619 150.968 156.947 151.521C158.298 152.075 159.869 152.352 161.662 152.352C163.411 152.352 164.938 152.075 166.244 151.521C167.55 150.946 168.679 150.182 169.631 149.23C170.583 148.257 171.368 147.139 171.988 145.877C172.63 144.593 173.128 143.243 173.482 141.826C173.859 140.387 174.124 138.915 174.279 137.41C174.434 135.905 174.512 134.444 174.512 133.027ZM235.307 142.391C235.307 144.449 235.041 146.264 234.51 147.836C234.001 149.408 233.27 150.769 232.318 151.92C231.389 153.071 230.282 154.034 228.998 154.809C227.714 155.583 226.309 156.203 224.781 156.668C223.276 157.133 221.671 157.465 219.967 157.664C218.285 157.863 216.569 157.963 214.82 157.963C212.518 157.963 210.393 157.786 208.445 157.432C206.497 157.1 204.66 156.568 202.934 155.838C201.229 155.085 199.58 154.122 197.986 152.949C196.415 151.776 194.843 150.348 193.271 148.666L200.045 141.793C200.665 143.32 201.517 144.737 202.602 146.043C203.686 147.327 204.87 148.434 206.154 149.363C207.46 150.293 208.811 151.023 210.205 151.555C211.6 152.086 212.917 152.352 214.156 152.352C215.617 152.352 216.99 152.252 218.273 152.053C219.557 151.831 220.675 151.477 221.627 150.99C222.579 150.503 223.32 149.861 223.852 149.064C224.405 148.245 224.682 147.227 224.682 146.01C224.682 145.08 224.471 144.283 224.051 143.619C223.63 142.955 223.077 142.391 222.391 141.926C221.727 141.439 220.963 141.029 220.1 140.697C219.236 140.365 218.351 140.089 217.443 139.867C216.558 139.624 215.684 139.413 214.82 139.236C213.957 139.037 213.193 138.838 212.529 138.639C211.223 138.262 209.862 137.864 208.445 137.443C207.029 137.001 205.634 136.503 204.262 135.949C202.889 135.396 201.583 134.765 200.344 134.057C199.126 133.326 198.053 132.474 197.123 131.5C196.193 130.504 195.452 129.364 194.898 128.08C194.345 126.774 194.068 125.28 194.068 123.598C194.068 121.583 194.312 119.801 194.799 118.252C195.308 116.68 196.016 115.319 196.924 114.168C197.831 113.017 198.905 112.054 200.145 111.279C201.384 110.482 202.745 109.852 204.229 109.387C205.712 108.9 207.283 108.557 208.943 108.357C210.626 108.136 212.341 108.025 214.09 108.025C216.48 108.025 218.65 108.247 220.598 108.689C222.568 109.132 224.383 109.763 226.043 110.582C227.703 111.401 229.219 112.386 230.592 113.537C231.986 114.666 233.292 115.928 234.51 117.322L227.736 124.195C227.205 122.602 226.464 121.163 225.512 119.879C224.582 118.595 223.542 117.499 222.391 116.592C221.24 115.662 220.033 114.954 218.771 114.467C217.51 113.958 216.292 113.703 215.119 113.703C213.592 113.703 212.186 113.814 210.902 114.035C209.618 114.234 208.512 114.577 207.582 115.064C206.674 115.529 205.966 116.171 205.457 116.99C204.948 117.787 204.693 118.783 204.693 119.979C204.693 120.93 204.882 121.738 205.258 122.402C205.634 123.066 206.132 123.631 206.752 124.096C207.394 124.561 208.113 124.948 208.91 125.258C209.707 125.546 210.526 125.8 211.367 126.021C212.23 126.243 213.072 126.442 213.891 126.619C214.732 126.774 215.495 126.951 216.182 127.15C217.51 127.527 218.904 127.925 220.365 128.346C221.826 128.766 223.265 129.264 224.682 129.84C226.098 130.393 227.449 131.035 228.732 131.766C230.016 132.496 231.145 133.37 232.119 134.389C233.093 135.385 233.868 136.547 234.443 137.875C235.019 139.181 235.307 140.686 235.307 142.391ZM277.873 157H243.541V109.188H277.873V115.297H256.723V130.072H273.059V136.148H256.723V150.891H277.873V157ZM299.223 157H286.041V109.188H311.873C314.109 109.188 316.245 109.486 318.281 110.084C320.34 110.682 322.155 111.589 323.727 112.807C325.298 114.002 326.549 115.518 327.479 117.355C328.43 119.171 328.906 121.307 328.906 123.764C328.906 125.313 328.685 126.774 328.242 128.146C327.799 129.497 327.18 130.736 326.383 131.865C325.608 132.994 324.689 134.012 323.627 134.92C322.564 135.827 321.402 136.591 320.141 137.211C318.879 137.831 317.54 138.307 316.123 138.639C314.729 138.971 313.312 139.137 311.873 139.137H299.223V157ZM315.559 123.764C315.559 120.687 314.773 118.274 313.201 116.525C311.652 114.755 309.305 113.869 306.162 113.869H299.223V134.621H306.162C307.844 134.621 309.272 134.355 310.445 133.824C311.641 133.271 312.615 132.507 313.367 131.533C314.12 130.559 314.673 129.419 315.027 128.113C315.382 126.785 315.559 125.335 315.559 123.764ZM370.111 157H335.779V109.188H370.111V115.297H348.961V130.072H365.297V136.148H348.961V150.891H370.111V157ZM400.393 157H387.211V115.297H374.195V109.188H413.408V115.297H400.393V157ZM462.648 134.123V134.754C462.604 136.613 462.405 138.539 462.051 140.531C461.719 142.523 461.243 144.516 460.623 146.508C460.003 148.5 459.262 150.47 458.398 152.418C457.535 154.366 456.561 156.225 455.477 157.996C454.414 159.789 453.263 161.46 452.023 163.01C450.784 164.581 449.478 165.965 448.105 167.16L443.158 164.305C443.933 162.999 444.63 161.571 445.25 160.021C445.892 158.494 446.467 156.889 446.977 155.207C447.486 153.525 447.917 151.798 448.271 150.027C448.648 148.257 448.958 146.497 449.201 144.748C449.445 142.999 449.622 141.284 449.732 139.602C449.865 137.897 449.932 136.281 449.932 134.754C449.932 133.559 449.921 132.208 449.898 130.703C449.898 129.176 449.81 127.626 449.633 126.055C449.478 124.483 449.212 122.956 448.836 121.473C448.46 119.967 447.895 118.628 447.143 117.455C446.412 116.282 445.46 115.341 444.287 114.633C443.136 113.924 441.697 113.57 439.971 113.57C438.443 113.57 437.126 113.836 436.02 114.367C434.935 114.876 434.005 115.574 433.23 116.459C432.478 117.322 431.869 118.329 431.404 119.48C430.962 120.632 430.607 121.849 430.342 123.133C430.098 124.395 429.932 125.678 429.844 126.984C429.777 128.268 429.744 129.486 429.744 130.637V139.9H444.055V145.379H429.744V157H416.562V132.695C416.562 129.22 417.116 125.988 418.223 123C419.329 120.012 420.89 117.422 422.904 115.23C424.941 113.017 427.376 111.29 430.209 110.051C433.064 108.789 436.241 108.158 439.738 108.158C442.107 108.158 444.32 108.501 446.379 109.188C448.46 109.852 450.352 110.781 452.057 111.977C453.761 113.15 455.277 114.555 456.605 116.193C457.956 117.809 459.074 119.58 459.959 121.506C460.867 123.432 461.553 125.468 462.018 127.615C462.482 129.762 462.693 131.932 462.648 134.123ZM505.58 157H471.248V109.188H484.43V150.924H505.58V157ZM551.002 142.391C551.002 144.449 550.736 146.264 550.205 147.836C549.696 149.408 548.965 150.769 548.014 151.92C547.084 153.071 545.977 154.034 544.693 154.809C543.41 155.583 542.004 156.203 540.477 156.668C538.971 157.133 537.367 157.465 535.662 157.664C533.98 157.863 532.264 157.963 530.516 157.963C528.214 157.963 526.089 157.786 524.141 157.432C522.193 157.1 520.355 156.568 518.629 155.838C516.924 155.085 515.275 154.122 513.682 152.949C512.11 151.776 510.538 150.348 508.967 148.666L515.74 141.793C516.36 143.32 517.212 144.737 518.297 146.043C519.382 147.327 520.566 148.434 521.85 149.363C523.156 150.293 524.506 151.023 525.9 151.555C527.295 152.086 528.612 152.352 529.852 152.352C531.312 152.352 532.685 152.252 533.969 152.053C535.253 151.831 536.37 151.477 537.322 150.99C538.274 150.503 539.016 149.861 539.547 149.064C540.1 148.245 540.377 147.227 540.377 146.01C540.377 145.08 540.167 144.283 539.746 143.619C539.326 142.955 538.772 142.391 538.086 141.926C537.422 141.439 536.658 141.029 535.795 140.697C534.932 140.365 534.046 140.089 533.139 139.867C532.253 139.624 531.379 139.413 530.516 139.236C529.652 139.037 528.889 138.838 528.225 138.639C526.919 138.262 525.557 137.864 524.141 137.443C522.724 137.001 521.329 136.503 519.957 135.949C518.585 135.396 517.279 134.765 516.039 134.057C514.822 133.326 513.748 132.474 512.818 131.5C511.889 130.504 511.147 129.364 510.594 128.08C510.04 126.774 509.764 125.28 509.764 123.598C509.764 121.583 510.007 119.801 510.494 118.252C511.003 116.68 511.712 115.319 512.619 114.168C513.527 113.017 514.6 112.054 515.84 111.279C517.079 110.482 518.441 109.852 519.924 109.387C521.407 108.9 522.979 108.557 524.639 108.357C526.321 108.136 528.036 108.025 529.785 108.025C532.176 108.025 534.345 108.247 536.293 108.689C538.263 109.132 540.078 109.763 541.738 110.582C543.398 111.401 544.915 112.386 546.287 113.537C547.682 114.666 548.988 115.928 550.205 117.322L543.432 124.195C542.9 122.602 542.159 121.163 541.207 119.879C540.277 118.595 539.237 117.499 538.086 116.592C536.935 115.662 535.729 114.954 534.467 114.467C533.205 113.958 531.988 113.703 530.814 113.703C529.287 113.703 527.882 113.814 526.598 114.035C525.314 114.234 524.207 114.577 523.277 115.064C522.37 115.529 521.661 116.171 521.152 116.99C520.643 117.787 520.389 118.783 520.389 119.979C520.389 120.93 520.577 121.738 520.953 122.402C521.329 123.066 521.827 123.631 522.447 124.096C523.089 124.561 523.809 124.948 524.605 125.258C525.402 125.546 526.221 125.8 527.062 126.021C527.926 126.243 528.767 126.442 529.586 126.619C530.427 126.774 531.191 126.951 531.877 127.15C533.205 127.527 534.6 127.925 536.061 128.346C537.521 128.766 538.96 129.264 540.377 129.84C541.794 130.393 543.144 131.035 544.428 131.766C545.712 132.496 546.84 133.37 547.814 134.389C548.788 135.385 549.563 136.547 550.139 137.875C550.714 139.181 551.002 140.686 551.002 142.391Z" fill="white"/>
</svg>
